<?xml version="1.0" standalone="no"?>
  <!DOCTYPE svg PUBLIC "-//W3C//DTD SVG 1.1//EN" "http://www.w3.org/Graphics/SVG/1.1/DTD/svg11.dtd" >
  <svg>
  <metadata>
  Created by font-carrier
  </metadata>
  <defs>
  <font id="iconfont" horiz-adv-x="1024" vert-adv-y="1024" >
    <font-face
      
      font-family="iconfont"
      
      font-weight="400"
      
      font-stretch="normal"
      
      units-per-em="1024"
      
      ascent="812"
      
      descent="-212"
      
    />
      <missing-glyph />

      
      <glyph glyph-name="x" unicode="&#x78;" horiz-adv-x="100"
        d="M20 20 L50 20 L50 -20 Z" />
      

      
      <glyph glyph-name="add" unicode="&#xE001;" d="M480 684M512 684L512 684Q544 684 544 652L544-52Q544-84 512-84L512-84Q480-84 480-52L480 652Q480 684 512 684ZM128 330.08M160 330.08L864 330.08Q896 330.08 896 298.08L896 298.08Q896 266.08 864 266.08L160 266.08Q128 266.08 128 298.08L128 298.08Q128 330.08 160 330.08Z"  horiz-adv-x="1024" vert-adv-y="1024"  />

      
      <glyph glyph-name="companies" unicode="&#xE002;" d="M602.88-84H223.36A32.64 32.64 0 0 0 191.36-52V652A32 32 0 0 0 223.36 684H602.88A32 32 0 0 0 634.88 652V-52A32 32 0 0 0 602.88-84ZM256-20H570.88V620H256ZM799.36-84H602.88A32 32 0 0 0 570.88-52V373.6A32 32 0 0 0 602.88 405.6H799.36A32 32 0 0 0 831.36 373.6V-53.28A32 32 0 0 0 799.36-84ZM634.88-20H768V341.6H634.88ZM481.92-84H349.44A32 32 0 0 0 317.44-52V236A32 32 0 0 0 349.44 268H481.92A32 32 0 0 0 512 236V-53.28A32 32 0 0 0 481.92-84ZM384-20H448V204H384ZM487.68 470.88H338.56A32 32 0 0 0 306.56 502.88 32 32 0 0 0 338.56 534.88H487.68A32 32 0 0 0 519.68 502.88 32 32 0 0 0 487.68 470.88ZM481.92 341.6H349.44A32 32 0 1 0 349.44 405.6H481.92A32 32 0 0 0 481.92 341.6ZM865.92-84H161.92A32 32 0 0 0 129.92-52 32 32 0 0 0 161.92-20H865.92A32 32 0 0 0 897.92-52 32.64 32.64 0 0 0 865.92-84Z"  horiz-adv-x="1024" vert-adv-y="1024"  />

      
      <glyph glyph-name="management" unicode="&#xE003;" d="M433.92 347.36H487.04A128 128 0 0 1 615.04 475.36V556A128 128 0 0 1 487.04 684H433.92A128 128 0 0 1 305.92 556V475.36A128 128 0 0 1 433.92 347.36ZM369.92 556A64 64 0 0 0 433.92 620H487.04A64 64 0 0 0 551.04 556V475.36A64 64 0 0 0 487.04 411.36H433.92A64 64 0 0 0 369.92 475.36ZM736.64 216.16A60.16 60.16 0 0 1 714.24 252.64 423.68 423.68 0 0 1 458.24 316.64 423.68 423.68 0 0 1 202.24 252.64 64 64 0 0 1 180.48 216.16L133.76-5.28A64 64 0 0 1 192-84H730.24A64 64 0 0 1 783.36-7.84ZM199.68-20V-20L247.04 200.8A373.12 373.12 0 0 0 460.16 249.44 373.76 373.76 0 0 0 673.92 200.8L720-20ZM669.44 556H861.44A32 32 0 0 1 893.44 588 32 32 0 0 1 861.44 620H669.44A32 32 0 0 1 637.44 588 32.64 32.64 0 0 1 669.44 556ZM863.36 492H707.2A32 32 0 0 1 675.2 460 32 32 0 0 1 707.2 428H863.36A32 32 0 0 1 895.36 460 32 32 0 0 1 863.36 492ZM863.36 364H757.76A32 32 0 0 1 757.76 300H863.36A32 32 0 1 1 863.36 364Z"  horiz-adv-x="1024" vert-adv-y="1024"  />

      
      <glyph glyph-name="account" unicode="&#xE004;" d="M542.08 679.52A64 64 0 0 0 606.08 615.52V520.16A64 64 0 0 0 542.08 456.16H474.88A64 64 0 0 0 410.88 520.16V615.52A64 64 0 0 0 474.88 679.52H542.08M542.08 743.52H474.88A128 128 0 0 1 346.88 615.52V520.16A128 128 0 0 1 474.88 392.16H542.08A128 128 0 0 1 670.08 520.16V615.52A128 128 0 0 1 542.08 743.52ZM512 271.2A491.52 491.52 0 0 0 775.68 216.8L827.52-20H192L192-16.8 246.4 213.6A490.88 490.88 0 0 0 512 271.2M512 335.2A554.24 554.24 0 0 1 211.84 271.2 64 64 0 0 1 185.6 232.8L128 1.12A64 64 0 0 1 192-84H826.88A64 64 0 0 1 890.88-4.64L832 231.52A64 64 0 0 1 805.76 269.92 551.68 551.68 0 0 1 512 335.2Z"  horiz-adv-x="1024" vert-adv-y="1024"  />

      
      <glyph glyph-name="team" unicode="&#xE005;" d="M736-76.32H288A32 32 0 0 0 256-44.32V26.08H192A32 32 0 0 0 160 58.08V222.56A164.48 164.48 0 0 0 329.6 380H415.36A30.08 30.08 0 0 0 437.76 370.4L512 294.88 584.32 370.4A30.72 30.72 0 0 0 607.36 380H693.12A165.12 165.12 0 0 0 863.36 222.56V58.08A32 32 0 0 0 831.36 26.08H768V-44.32A32 32 0 0 0 736-76.32ZM320-12.32H704V58.08A32 32 0 0 0 736 90.08H800V222.56A101.12 101.12 0 0 1 693.76 316H620.8L534.4 227.04A32 32 0 0 0 488.96 227.04H488.96L401.28 316H329.6A100.48 100.48 0 0 1 223.36 222.56V90.08H287.36A32.64 32.64 0 0 0 319.36 58.08ZM672 428A128 128 0 1 0 800 556 128 128 0 0 0 672 428ZM672 620A64 64 0 1 1 736 556 64 64 0 0 1 672 620ZM352 428A128 128 0 1 0 480 556 128 128 0 0 0 352 428ZM352 620A64 64 0 1 1 416 556 64 64 0 0 1 352 620Z"  horiz-adv-x="1024" vert-adv-y="1024"  />

      
      <glyph glyph-name="cancel" unicode="&#xE007;" d="M558.72 300L828.16 570.08A30.72 30.72 0 0 1 828.16 614.88 32 32 0 0 1 782.72 614.88L512 348 243.2 620A32 32 0 0 1 197.76 620 32 32 0 0 1 197.76 575.2L467.84 300 197.76 32.48A32 32 0 0 1 197.76-12.32 32 32 0 0 1 243.2-12.32L512 257.12 781.44-12.32A32 32 0 0 1 826.88-12.32 30.72 30.72 0 0 1 826.88 32.48Z"  horiz-adv-x="1024" vert-adv-y="1024"  />

      
      <glyph glyph-name="data-maintenance" unicode="&#xE008;" d="M827.52 113.12L856.32 141.92A23.04 23.04 0 0 1 842.24 180.96L698.88 197.6A21.76 21.76 0 0 1 675.2 173.28L691.84 30.56A22.4 22.4 0 0 1 730.24 16.48L765.44 51.68 893.44-76.32A12.8 12.8 0 0 1 910.72-76.32L954.88-31.52A11.52 11.52 0 0 1 954.88-14.24ZM256 347.36V187.36A32 32 0 0 1 288 155.36 32 32 0 0 1 320 187.36V347.36A32 32 0 0 1 288 379.36 32.64 32.64 0 0 1 256 347.36ZM448 347.36V187.36A32 32 0 0 1 480 155.36 32 32 0 0 1 512 187.36V347.36A32 32 0 0 1 480 379.36 32.64 32.64 0 0 1 448 347.36ZM704 284.64V348.64A32.64 32.64 0 0 1 672 380.64 32 32 0 0 1 640 348.64V284.64A32 32 0 0 1 672 252.64 32 32 0 0 1 704 284.64ZM871.04 568.16L750.08 648.8A167.04 167.04 0 0 1 655.36 677.6H311.04A168.96 168.96 0 0 1 215.68 648.8L95.36 568.16A64 64 0 0 1 67.2 515.68V108A128 128 0 0 1 195.2-20H611.2A32 32 0 0 1 611.2 44H197.12A64 64 0 0 0 133.12 108V486.24H837.12V263.52A32 32 0 0 1 901.12 263.52V515.68A64 64 0 0 1 871.04 568.16ZM251.52 595.68A104.96 104.96 0 0 0 311.04 613.6H655.36A104.96 104.96 0 0 0 714.88 595.68L782.72 550.24H183.68Z"  horiz-adv-x="1024" vert-adv-y="1024"  />

      
      <glyph glyph-name="cancels" unicode="&#xE009;" d="M512 748A448 448 0 1 1 960 300 448 448 0 0 1 512 748ZM512-84A384 384 0 1 0 896 300 384 384 0 0 0 512-84ZM738.56 538.72A32.64 32.64 0 0 1 693.12 538.72L512 357.6 330.88 538.72A32 32 0 1 1 285.44 492L466.56 312.16 285.44 131.04A32 32 0 0 1 285.44 86.24 32 32 0 0 1 330.88 86.24L512 266.72 693.12 86.24A32 32 0 0 1 738.56 86.24 32 32 0 0 1 738.56 131.04L557.44 312.16 738.56 492A32.64 32.64 0 0 1 738.56 538.72Z"  horiz-adv-x="1024" vert-adv-y="1024"  />

      
      <glyph glyph-name="feishu" unicode="&#xE00B;" d="M414.72 1.12L350.72 96.48 652.8 398.56A32.64 32.64 0 0 1 652.8 444 32 32 0 0 1 607.36 444L268.16 104.8 359.68-34.08A33.28 33.28 0 0 1 386.56-48.16 28.8 28.8 0 0 1 403.84-43.04 31.36 31.36 0 0 1 414.72 1.12ZM648.96-84L918.4 663.52A32.64 32.64 0 0 1 876.8 705.12L128 435.68A32.64 32.64 0 0 1 115.84 381.92L286.08 211.68H286.08A31.36 31.36 0 1 1 330.88 256.48L195.2 392.16 835.2 622.56 605.44-20 421.76 166.24 376.32 120.8 595.2-98.08A32.64 32.64 0 0 1 648.96-84Z"  horiz-adv-x="1024" vert-adv-y="1024"  />

      
      <glyph glyph-name="contact" unicode="&#xE00C;" d="M630.4 407.52A85.12 85.12 0 1 1 545.92 323.04 84.48 84.48 0 0 1 630.4 407.52ZM512 407.52A37.12 37.12 0 1 0 549.12 371.04 37.12 37.12 0 0 0 512 407.52ZM412.16 224.48L399.36 153.44A40.32 40.32 0 0 1 407.68 120.8 39.68 39.68 0 0 1 438.4 106.72H652.16A39.68 39.68 0 0 1 682.88 120.8 42.88 42.88 0 0 1 691.2 153.44L678.4 224.48A94.72 94.72 0 0 1 585.6 300H504.96A94.72 94.72 0 0 1 412.16 224.48ZM459.52 216.16A46.08 46.08 0 0 0 504.96 253.92H585.6A47.36 47.36 0 0 0 631.04 216.16L641.92 152.16H448ZM832 684H256A32 32 0 0 1 224 652V556A32 32 0 0 1 256 524 32.64 32.64 0 0 1 288 556V620H800V-20H288V44A32 32 0 0 1 256 76 32 32 0 0 1 224 44V-50.72A32 32 0 0 1 256-84H832A32 32 0 0 1 864-52V652A32 32 0 0 1 832 684ZM192 395.36H320A32 32 0 0 1 352 428 32 32 0 0 1 320 460H192A32 32 0 0 1 160 428 32.64 32.64 0 0 1 192 395.36ZM352 172A32 32 0 0 1 320 204H192A32.64 32.64 0 0 1 160 172 32 32 0 0 1 192 140H320A32 32 0 0 1 352 172ZM192 264.8H320A32 32 0 0 1 352 296.8 32 32 0 0 1 320 328.8H192A32 32 0 0 1 160 296.8 32.64 32.64 0 0 1 192 264.8Z"  horiz-adv-x="1024" vert-adv-y="1024"  />

      
      <glyph glyph-name="cooperation" unicode="&#xE00D;" d="M512-112.16A32 32 0 0 0 489.6-103.2L64 321.12A32 32 0 0 0 64 364L334.08 634.08A32 32 0 0 0 378.88 634.08L530.56 482.4A32 32 0 0 0 530.56 437.6 32 32 0 0 0 485.12 437.6L357.12 565.6 134.4 344.16 512-35.36 734.08 187.36 561.92 360.8A32 32 0 0 0 561.92 406.24 32 32 0 0 0 606.72 406.24L803.2 209.76A32 32 0 0 0 803.2 164.32L535.68-103.2A32 32 0 0 0 512-112.16ZM788.48 163.68A32 32 0 0 0 768 172 32 32 0 0 0 768 217.44L896 345.44 669.44 566.24 487.04 383.84A37.76 37.76 0 0 1 506.88 374.88 53.12 53.12 0 0 1 547.2 395.36L590.72 438.88A32 32 0 1 0 636.16 393.44L592.64 349.92A112 112 0 0 0 499.2 311.52 128 128 0 0 0 415.36 364L401.92 385.76 640 627.04A42.24 42.24 0 0 0 698.88 627.04L954.88 371.04A40.32 40.32 0 0 0 967.04 341.6 38.4 38.4 0 0 0 954.88 312.16L811.52 172A32.64 32.64 0 0 0 788.48 163.68ZM711.68 86.24A32 32 0 0 0 689.28 95.84L621.44 159.84A32 32 0 0 0 666.24 205.28L734.72 138.08A32.64 32.64 0 0 0 734.72 92.64 32.64 32.64 0 0 0 711.68 86.24ZM646.4 20.96A33.28 33.28 0 0 0 624 29.92L555.52 97.76A32 32 0 0 0 600.96 143.2L668.8 75.36A31.36 31.36 0 0 0 668.8 30.56 32.64 32.64 0 0 0 646.4 20.96ZM579.2-46.24A32 32 0 0 0 556.8-36.64L488.96 27.36A32 32 0 1 0 533.76 72.8L601.6 8.8A32 32 0 0 0 579.2-46.24Z"  horiz-adv-x="1024" vert-adv-y="1024"  />

      
      <glyph glyph-name="copy" unicode="&#xE00F;" d="M832 449.76V-20H360.96V449.76H832M832 513.76H360.32A64 64 0 0 1 296.32 449.76V-20A64 64 0 0 1 360.32-84H832A64 64 0 0 1 896-20V450.4A64 64 0 0 1 832 514.4ZM348.16 149.6H192V620H663.04V478.56H727.04V620A64 64 0 0 1 663.04 684H192A64 64 0 0 1 128 620V148.96A64 64 0 0 1 192 84.96H348.16Z"  horiz-adv-x="1024" vert-adv-y="1024"  />

      
      <glyph glyph-name="question" unicode="&#xE012;" d="M524.16 538.72A131.2 131.2 0 0 1 396.16 407.52 32 32 0 0 1 428.16 375.52 32.64 32.64 0 0 1 460.16 407.52 64 64 0 1 0 524.16 343.52 32 32 0 0 1 492.16 311.52H492.16V194.4A32 32 0 0 1 524.16 162.4 32.64 32.64 0 0 1 556.16 194.4V280.8A128 128 0 0 1 524.16 536.8ZM524.16 127.2A36.48 36.48 0 1 1 524.16 54.24 36.48 36.48 0 1 1 524.16 127.2ZM512-87.2A384 384 0 1 0 896 296.8 384 384 0 0 0 512-87.2ZM512 620A320 320 0 1 1 832 300 320 320 0 0 1 512 620Z"  horiz-adv-x="1024" vert-adv-y="1024"  />

      
      <glyph glyph-name="service" unicode="&#xE013;" d="M807.68 53.6L758.4 94.56A320 320 0 0 0 549.12-20 39.04 39.04 0 0 1 520.32-7.2H471.04A39.04 39.04 0 0 1 432-46.24H432A39.04 39.04 0 0 1 471.04-85.28H523.52A384 384 0 0 1 807.68 53.6ZM896 300A384 384 0 0 1 128 300V296.16S128 296.16 128 296.16V95.2A64 64 0 0 1 192 31.2H256A64 64 0 0 1 320 95.2V292.96A64 64 0 0 1 256 356.96H198.4A320 320 0 0 0 826.24 356.96H768A64 64 0 0 1 704 292.96V95.2A64 64 0 0 1 768 31.2H832A64 64 0 0 1 896 95.2V292.96S896 296.8 896 298.72ZM260.48 294.24V95.2S260.48 95.2 260.48 95.2L196.48 95.2 192 294.24ZM832 95.2S832 95.2 832 95.2L764.8 95.2 764.8 294.24 832 294.24Z"  horiz-adv-x="1024" vert-adv-y="1024"  />

      
      <glyph glyph-name="basic-information" unicode="&#xE015;" d="M352 428A32 32 0 0 1 320 396 32 32 0 0 1 352 364H640A32.64 32.64 0 0 1 672 396 32 32 0 0 1 640 428ZM640 300H352A32 32 0 0 1 320 268 32 32 0 0 1 352 236H640A32.64 32.64 0 0 1 672 268 32 32 0 0 1 640 300ZM512 172H352A32 32 0 0 1 320 140 32 32 0 0 1 352 108H512A32 32 0 0 1 544 140 32 32 0 0 1 512 172ZM799.36 620H640V654.56A32 32 0 0 1 576 654.56V620H448V654.56A32.64 32.64 0 0 1 416 684 32 32 0 0 1 384 652V620H224.64A32 32 0 0 1 192.64 588V-52A32 32 0 0 1 224.64-84H800.64A32 32 0 0 1 832.64-52V588A32 32 0 0 1 799.36 620ZM768-20H256V556H384V527.84A32 32 0 0 1 416 495.84 32 32 0 0 1 448 527.84V556H576V527.84A32 32 0 0 1 640 527.84V556H768Z"  horiz-adv-x="1024" vert-adv-y="1024"  />

      
      <glyph glyph-name="bedivorcedfrom" unicode="&#xE016;" d="M607.36 321.76H479.36L561.92 419.68A32 32 0 1 1 512 460.64L389.12 309.6A31.36 31.36 0 0 1 384 275.68 32 32 0 0 1 412.8 257.76H544.64L480.64 165.6A31.36 31.36 0 0 1 487.68 120.8 28.8 28.8 0 0 1 506.24 114.4 30.72 30.72 0 0 1 531.84 127.84L633.6 270.56A32.64 32.64 0 0 1 607.36 321.76ZM928 325.6H864A353.92 353.92 0 0 1 544 645.6V715.36A32 32 0 0 1 512 748 32 32 0 0 1 480 716V645.6A354.56 354.56 0 0 1 160 325.6H96A32.64 32.64 0 0 1 64 293.6 32 32 0 0 1 96 261.6H160A353.28 353.28 0 0 1 480-58.4V-115.36A32 32 0 0 1 512-148 32 32 0 0 1 544-116V-59.04A353.92 353.92 0 0 1 864 260.96H928A32 32 0 0 1 960 292.96 32 32 0 0 1 928 325.6ZM761.6 261.6H797.44A289.92 289.92 0 0 0 541.44 5.6V51.04A32 32 0 0 1 509.44 83.04 32.64 32.64 0 0 1 477.44 51.04V5.6A289.28 289.28 0 0 0 221.44 261.6H262.4A32 32 0 0 1 294.4 293.6 32 32 0 0 1 262.4 325.6H223.36A290.56 290.56 0 0 0 479.36 581.6V549.6A32 32 0 0 1 511.36 517.6 32 32 0 0 1 543.36 549.6V580.32A288.64 288.64 0 0 0 799.36 324.32H761.6A32 32 0 0 1 729.6 292.32 32 32 0 0 1 761.6 261.6Z"  horiz-adv-x="1024" vert-adv-y="1024"  />

      
      <glyph glyph-name="enlarge" unicode="&#xE017;" d="M237.44 588H352A32 32 0 0 1 352 652H160A26.24 26.24 0 0 1 147.84 652 32.64 32.64 0 0 1 128 632.16 24.96 24.96 0 0 1 128 620H128V428A32 32 0 0 1 192 428V542.56L363.52 371.04A32 32 0 1 1 408.96 416.48ZM896 620A24.96 24.96 0 0 1 896 631.52 32.64 32.64 0 0 1 878.72 648.8 26.24 26.24 0 0 1 866.56 648.8H674.56A32 32 0 0 1 674.56 584.8H789.12L615.04 416.48A32 32 0 1 1 660.48 371.04L832 542.56V428A32 32 0 0 1 896 428V620ZM363.52 228.96L192 57.44V172A32 32 0 0 1 128 172V-20H128A24.96 24.96 0 0 1 128-31.52 32.64 32.64 0 0 1 145.28-48.8 26.24 26.24 0 0 1 157.44-48.8H349.44A32 32 0 0 1 349.44 15.2H237.44L408.96 183.52A32 32 0 1 1 363.52 228.96ZM864 204A32 32 0 0 1 832 172V57.44L660.48 228.96A32 32 0 0 1 615.04 183.52L786.56 12H672A32 32 0 0 1 672-52H864A26.24 26.24 0 0 1 876.16-52 32.64 32.64 0 0 1 893.44-34.72 24.96 24.96 0 0 1 896-20H896V172A32 32 0 0 1 864 204Z"  horiz-adv-x="1024" vert-adv-y="1024"  />

      
      <glyph glyph-name="shutdown" unicode="&#xE018;" d="M720.64 620A32 32 0 1 1 685.44 566.88 320 320 0 1 0 336.64 566.88 32 32 0 1 1 302.08 620 384 384 0 1 1 720.64 620ZM512 284A32 32 0 0 1 544 316V652A32 32 0 0 1 512 684 32 32 0 0 1 480 652V316A32.64 32.64 0 0 1 512 284Z"  horiz-adv-x="1024" vert-adv-y="1024"  />

      
      <glyph glyph-name="maintain" unicode="&#xE01B;" d="M881.28 133.6L730.24 284.64A330.24 330.24 0 0 1 654.08 620 327.68 327.68 0 0 1 296.96 689.12 35.2 35.2 0 0 1 278.4 642.4 33.92 33.92 0 0 1 325.76 624.48 256 256 0 0 0 657.92 292.32 26.24 26.24 0 0 1 657.92 280.16 34.56 34.56 0 0 1 667.52 248.8L830.08 79.2A71.68 71.68 0 0 0 726.4-20L567.68 136.8A35.84 35.84 0 0 1 520.32 154.72 256 256 0 0 0 188.16 486.88 35.84 35.84 0 0 1 170.24 534.24 35.2 35.2 0 0 1 123.52 515.68 325.12 325.12 0 0 1 522.24 81.12L675.84-72.48A145.28 145.28 0 1 1 881.28 133.6ZM430.08 328.16A72.32 72.32 0 0 0 358.4 400.48 33.92 33.92 0 0 1 320 436.32 33.28 33.28 0 0 1 284.16 400.48 144.64 144.64 0 1 1 430.08 545.12 34.56 34.56 0 0 1 394.24 508.64 33.92 33.92 0 0 1 430.08 472.8 72.32 72.32 0 1 0 430.08 328.16Z"  horiz-adv-x="1024" vert-adv-y="1024"  />

      
      <glyph glyph-name="file-set" unicode="&#xE01C;" d="M832 75.36A26.24 26.24 0 0 0 832 114.4L862.72 142.56A183.68 183.68 0 0 1 844.16 187.36L802.56 187.36H802.56A26.24 26.24 0 0 0 775.68 214.88L775.68 256.48A218.24 218.24 0 0 1 730.24 275.04L704 241.76A26.88 26.88 0 0 0 684.8 236 24.96 24.96 0 0 0 665.6 244.32L640 272.48A161.92 161.92 0 0 1 595.2 253.92L595.2 212.32A25.6 25.6 0 0 0 568.96 184.8H568.96L527.36 184.8A227.84 227.84 0 0 1 508.8 140L540.16 111.84A26.24 26.24 0 0 0 540.16 72.8L507.52 44A161.92 161.92 0 0 1 526.08-0.8L567.68-0.8H567.68A26.24 26.24 0 0 0 593.92-28.96L593.92-70.56A192 192 0 0 1 640-84L668.16-53.28A26.24 26.24 0 0 0 688-44.32 26.24 26.24 0 0 0 707.2-53.28L735.36-84A213.12 213.12 0 0 1 780.16-65.44L780.16-23.84A26.88 26.88 0 0 0 806.4 4.32H806.4L848 4.32A186.88 186.88 0 0 1 865.92 49.76ZM750.08 27.36A67.84 67.84 0 0 1 730.88-15.52 73.6 73.6 0 0 1 685.44 1.12 71.04 71.04 0 0 1 639.36-16.16 70.4 70.4 0 0 1 575.36 47.84 74.88 74.88 0 0 1 591.36 93.92 69.76 69.76 0 0 1 576 140 76.16 76.16 0 0 1 621.44 161.76 74.88 74.88 0 0 1 640.64 204.64 72.96 72.96 0 0 1 686.08 188.64 70.4 70.4 0 0 1 732.16 205.28 71.68 71.68 0 0 1 751.36 162.4 69.76 69.76 0 0 1 796.8 140.64 73.6 73.6 0 0 1 780.16 95.2 71.04 71.04 0 0 1 797.44 49.12 67.84 67.84 0 0 1 750.72 27.36ZM687.36 136.8A41.6 41.6 0 1 1 728.96 95.84 41.6 41.6 0 0 1 687.36 136.8ZM672 396.64A32.64 32.64 0 0 1 640 428H351.36A32 32 0 0 1 319.36 396 32 32 0 0 1 351.36 364H640A32 32 0 0 1 672 396.64ZM351.36 300A32 32 0 0 1 319.36 268 32 32 0 0 1 351.36 236H512A32 32 0 0 1 544 268 32 32 0 0 1 512 300ZM512-20H256V556H350.08V533.6A32 32 0 0 1 382.08 501.6H638.08A32 32 0 0 1 670.08 533.6V556H768V300A32 32 0 0 1 832 300V589.28A32 32 0 0 1 800 621.28H672V653.28A32 32 0 0 1 640 684H384A32 32 0 0 1 352 652V620H224A32 32 0 0 1 192 588V-52A32 32 0 0 1 224-84H512A32 32 0 0 1 512-20ZM414.08 620H606.08V565.6H414.08Z"  horiz-adv-x="1024" vert-adv-y="1024"  />

      
      <glyph glyph-name="position" unicode="&#xE01E;" d="M512 674.4A320 320 0 0 0 832 354.4C832 249.44 760.32 175.84 677.12 91.36L648.32 61.92C621.44 33.12 555.52-28.32 513.28-66.08 472.32-27.68 406.4 33.76 378.24 61.92L349.44 91.36C264.96 176.48 192 250.08 192 355.04A320 320 0 0 0 512 675.04M512 739.04A384 384 0 0 1 128 355.04C128 209.76 234.88 116.32 329.6 18.4 361.6-14.88 440.32-88.48 483.2-127.52A40.96 40.96 0 0 1 538.88-127.52C581.12-88.48 659.84-15.52 692.48 18.4 789.12 118.88 893.44 210.4 893.44 355.04A384 384 0 0 1 509.44 739.04ZM512 435.68A83.84 83.84 0 1 0 428.16 352.48 83.84 83.84 0 0 0 512 435.68M512 499.68A147.84 147.84 0 1 1 659.84 352.48 147.2 147.2 0 0 1 512 499.68Z"  horiz-adv-x="1024" vert-adv-y="1024"  />

      
      <glyph glyph-name="set" unicode="&#xE022;" d="M631.04 609.76L641.92 605.28 640 556A119.68 119.68 0 0 1 672.64 467.04 120.96 120.96 0 0 1 760.32 428H768L816 428A55.68 55.68 0 0 0 820.48 417.12L785.28 385.12A120.96 120.96 0 0 1 744.32 300 118.4 118.4 0 0 1 784.64 211.04L819.84 178.4A78.08 78.08 0 0 0 815.36 167.52L768 172H761.6A123.52 123.52 0 0 1 673.92 134.24 120.96 120.96 0 0 1 640 44L640-4 629.12-8.48 596.48 27.36A122.24 122.24 0 0 1 512 65.12 120.32 120.32 0 0 1 422.4 25.44L390.4-10.4 379.52-5.92 379.52 42.08A121.6 121.6 0 0 1 259.2 170.08H256L208 170.08C208 173.28 208 177.12 202.88 180.96L238.72 212.96A120.96 120.96 0 0 1 275.84 300 118.4 118.4 0 0 1 235.52 388.96L199.68 421.6A55.68 55.68 0 0 1 204.16 432.48L256 428H256A120.32 120.32 0 0 1 378.88 556L378.88 604 389.76 608.48 422.4 572.64A120.32 120.32 0 0 1 601.6 572.64L633.6 608.48M611.2 684L551.04 620A55.68 55.68 0 0 0 467.2 620L407.04 684A367.36 367.36 0 0 1 310.4 643.68L314.88 554.08A56.32 56.32 0 0 0 256 492H256L166.4 496.48A399.36 399.36 0 0 1 128 401.12L192 340.96A56.96 56.96 0 0 0 192 256.48L128 196.32A428.16 428.16 0 0 1 168.32 99.68L256 104.8H256A56.32 56.32 0 0 0 312.32 45.28L308.48-44.32A378.88 378.88 0 0 1 408.96-84L468.48-20A57.6 57.6 0 0 0 552.96-20L613.12-84A367.36 367.36 0 0 1 709.76-43.68L704 44A56.32 56.32 0 0 0 761.6 108H761.6L851.2 103.52A400.64 400.64 0 0 1 896 198.24L828.8 258.4A56.96 56.96 0 0 0 828.8 342.88L892.8 403.04A428.16 428.16 0 0 1 852.48 499.68L763.52 492H763.52A56.32 56.32 0 0 0 704 556L707.84 645.6A389.12 389.12 0 0 1 611.2 684ZM512 377.44A69.12 69.12 0 1 0 441.6 308.32 69.12 69.12 0 0 0 512 377.44M512 441.44A133.12 133.12 0 1 1 645.76 308.32 133.12 133.12 0 0 1 512 441.44Z"  horiz-adv-x="1024" vert-adv-y="1024"  />

      
      <glyph glyph-name="information" unicode="&#xE024;" d="M847.36 556H177.28A81.28 81.28 0 0 1 96 476.64V62.56A81.28 81.28 0 0 1 177.28-20H847.36A81.28 81.28 0 0 1 928 60.64V476.64A81.28 81.28 0 0 1 847.36 556ZM864 60.64A16.64 16.64 0 0 0 847.36 44H177.28A17.28 17.28 0 0 0 160 60.64V476.64A17.28 17.28 0 0 0 177.28 492H847.36A17.28 17.28 0 0 0 864 474.72ZM768 420.96L512 236 263.68 420.96A32 32 0 0 1 225.92 369.12L493.44 172A33.92 33.92 0 0 1 512.64 166.24 33.28 33.28 0 0 1 531.2 172L802.56 367.84A32 32 0 0 1 809.6 412 32 32 0 0 1 768 420.96Z"  horiz-adv-x="1024" vert-adv-y="1024"  />

      
      <glyph glyph-name="share" unicode="&#xE025;" d="M768 172A128 128 0 0 1 658.56 108L378.24 260.32A128 128 0 0 1 384 294.88 128 128 0 0 1 375.04 339.68L614.4 467.68A128 128 0 1 1 579.2 556 133.12 133.12 0 0 1 583.68 524L337.92 392.16A128 128 0 0 1 256 422.88 128 128 0 0 1 256 166.88 128 128 0 0 1 346.24 205.28L640 44V44A128 128 0 1 1 768 172ZM707.2 620A64 64 0 1 0 643.2 556 64 64 0 0 0 707.2 620ZM256 230.88A64 64 0 1 0 320 294.88 64 64 0 0 0 256 230.88ZM768-20A64 64 0 1 0 832 44 64 64 0 0 0 768-20Z"  horiz-adv-x="1024" vert-adv-y="1024"  />

      
      <glyph glyph-name="trajectory" unicode="&#xE028;" d="M512 25.44A28.8 28.8 0 0 0 493.44 31.84C483.2 38.88 245.76 212.96 245.76 415.84A266.24 266.24 0 1 0 778.24 415.84C778.24 212.32 540.8 38.24 530.56 31.84A29.44 29.44 0 0 0 512 25.44ZM512 620A202.88 202.88 0 0 1 309.76 416.48C309.76 275.68 458.88 141.28 512 96.48 565.12 140 714.24 274.4 714.24 416.48A202.88 202.88 0 0 1 512 620ZM512 308.96A108.16 108.16 0 1 0 620.16 416.48 108.16 108.16 0 0 0 512 308.96ZM512 476.64A60.16 60.16 0 1 1 572.16 416.48 60.16 60.16 0 0 1 512 476.64ZM785.92-84H238.08A108.8 108.8 0 1 0 238.08 133.6H256A32 32 0 0 0 288 101.6 32 32 0 0 0 256 69.6H238.08A44.8 44.8 0 1 1 238.08-20H785.92A44.8 44.8 0 1 1 785.92 69.6H768A32 32 0 0 0 736 101.6 32 32 0 0 0 768 133.6H783.36A108.8 108.8 0 1 0 783.36-84Z"  horiz-adv-x="1024" vert-adv-y="1024"  />

      
      <glyph glyph-name="news" unicode="&#xE02A;" d="M257.28 429.28A32 32 0 1 1 257.28 365.28 32 32 0 1 1 257.28 429.28ZM417.28 429.28A32 32 0 1 1 417.28 365.28 32 32 0 1 1 417.28 429.28ZM577.28 429.28A32 32 0 1 1 577.28 365.28 32 32 0 1 1 577.28 429.28ZM992 277.6A200.96 200.96 0 0 1 800 461.92 300.8 300.8 0 0 1 512 684H331.52A300.8 300.8 0 0 1 238.72 97.12L289.28-20 439.68 81.76H512A305.28 305.28 0 0 1 581.12 90.08 202.24 202.24 0 0 1 652.16 77.92L742.4 77.92 934.4 10.72 900.48 108A192 192 0 0 1 992 277.6ZM439.68 144.48H420.48L403.84 133.6 320 75.36 300.16 121.44 289.28 148.32 256 157.28A236.8 236.8 0 0 0 331.52 620H512A237.44 237.44 0 1 0 512 145.12ZM867.2 164.32L822.4 136.8 830.08 116.32 762.88 139.36 752 143.2H740.48L692.48 143.2A301.44 301.44 0 0 1 814.08 383.2 128 128 0 0 1 814.08 398.56 131.84 131.84 0 0 0 929.92 276.96 128 128 0 0 0 867.2 164.32Z"  horiz-adv-x="1024" vert-adv-y="1024"  />

      
      <glyph glyph-name="file" unicode="&#xE02E;" d="M863.36 458.08H863.36L607.36 714.08H223.36A64 64 0 0 1 159.36 650.08V-53.92A64 64 0 0 1 223.36-117.92H799.36A64 64 0 0 1 863.36-53.92V458.08ZM608 620L773.12 454.88H620.8A12.8 12.8 0 0 0 608 467.68ZM800-57.12H224V646.88H544V467.68A76.8 76.8 0 0 1 620.8 390.88H800ZM320 300H480A32 32 0 0 1 512 332 32 32 0 0 1 480 364H320A32 32 0 0 1 288 332 32 32 0 0 1 320 300ZM320 172H540.8A32.64 32.64 0 0 1 572.8 204 32 32 0 0 1 540.8 236H320A32 32 0 0 1 288 204 32 32 0 0 1 320 172ZM290.56 76A32 32 0 0 1 320 44H668.8A32 32 0 1 1 668.8 108H320A32 32 0 0 1 290.56 76Z"  horiz-adv-x="1024" vert-adv-y="1024"  />

      
      <glyph glyph-name="date" unicode="&#xE030;" d="M864-52H160A32 32 0 0 0 128-20V364A32 32 0 0 0 160 396H864A32 32 0 0 0 896 364V-20A32 32 0 0 0 864-52ZM192 12H832V332H192ZM864 332H160A32 32 0 0 0 128 364V556A32 32 0 0 0 160 588H864A32 32 0 0 0 896 556V364A32 32 0 0 0 864 332ZM192 396H832V524H192ZM352 460A32 32 0 0 0 320 492V620A32 32 0 0 0 384 620V492A32 32 0 0 0 352 460ZM672 460A32 32 0 0 0 640 492V620A32 32 0 0 0 704 620V492A32 32 0 0 0 672 460ZM413.44 204H285.44A32 32 0 0 0 256 236 32 32 0 0 0 288 268H416A32.64 32.64 0 0 0 448 236 32 32 0 0 0 413.44 204ZM512 76H288A32 32 0 0 0 256 108 32 32 0 0 0 288 140H512A32.64 32.64 0 0 0 544 108 32 32 0 0 0 512 76Z"  horiz-adv-x="1024" vert-adv-y="1024"  />

      
      <glyph glyph-name="protect" unicode="&#xE031;" d="M442.88 483.68C434.56 454.24 426.88 428.64 417.92 404.96V116.96H367.36V308.96L348.16 280.8 311.04 320.48A448 448 0 0 1 392.32 497.76ZM600.32 262.24A320 320 0 0 1 712.96 180.32L682.88 136.16A394.24 394.24 0 0 0 590.08 214.24V121.44H539.52V214.24A367.36 367.36 0 0 0 448 137.44L420.48 182.24A270.72 270.72 0 0 1 524.16 262.24H438.4V309.6H539.52V339.68H455.04V487.52H673.28V339.68H590.08V309.6H691.84V262.24ZM512 388.96H620.16V437.6H512ZM508.16-101.28A33.28 33.28 0 0 0 489.6-95.52L154.88 138.08A31.36 31.36 0 0 0 141.44 164.32V625.76A32.64 32.64 0 0 0 192 652.64 236.16 236.16 0 0 1 490.24 691.04 32.64 32.64 0 0 0 536.32 691.04 236.16 236.16 0 0 1 834.56 652.64 32.64 32.64 0 0 0 883.84 625.76V164.32A32 32 0 0 0 869.76 137.44L526.08-95.52A32.64 32.64 0 0 0 508.16-101.28ZM205.44 180.96L508.16-30.24 818.56 180.96V573.28A297.6 297.6 0 0 0 512 625.12 297.6 297.6 0 0 0 205.44 573.28Z"  horiz-adv-x="1024" vert-adv-y="1024"  />

      
      <glyph glyph-name="warehouse" unicode="&#xE032;" d="M798.08-84H222.08A32.64 32.64 0 0 0 190.08-52V428A32 32 0 0 0 202.88 452.96L489.6 676.32A32 32 0 0 0 528.64 676.32L817.92 452.96A31.36 31.36 0 0 0 832 428V-52A32 32 0 0 0 798.08-84ZM252.16-20H764.16V412L512 611.04 256 412ZM425.6 230.88H323.84A32 32 0 0 0 291.84 262.88V364A32 32 0 0 0 323.84 396H425.6A32.64 32.64 0 0 0 457.6 364V261.6A32.64 32.64 0 0 0 425.6 230.88ZM355.84 294.88H393.6V333.28H355.84ZM425.6 27.36H323.84A32 32 0 0 0 291.84 59.36V161.12A32 32 0 0 0 323.84 193.12H425.6A32 32 0 0 0 457.6 161.12V59.36A32 32 0 0 0 425.6 27.36ZM355.84 91.36H393.6V129.12H355.84ZM630.4 27.36H528.64A32 32 0 0 0 496.64 59.36V161.12A32 32 0 0 0 528.64 193.12H630.4A32 32 0 0 0 662.4 161.12V59.36A32 32 0 0 0 630.4 27.36ZM560.64 91.36H598.4V129.12H560.64Z"  horiz-adv-x="1024" vert-adv-y="1024"  />

      
      <glyph glyph-name="refresh" unicode="&#xE036;" d="M868.48 332A32 32 0 0 1 836.48 300 327.04 327.04 0 1 0 756.48 511.84H664.32A32 32 0 0 1 664.32 447.84H816.64A29.44 29.44 0 0 1 835.84 451.68 21.76 21.76 0 0 1 841.6 456.8H841.6A53.12 53.12 0 0 1 846.72 464.48L846.72 468.32S846.72 472.16 846.72 474.08 846.72 474.08 846.72 479.2V635.36A32 32 0 0 1 814.72 667.36 32 32 0 0 1 782.72 635.36V571.36A387.84 387.84 0 1 1 900.48 300 32 32 0 0 1 868.48 332Z"  horiz-adv-x="1024" vert-adv-y="1024"  />

      
      <glyph glyph-name="application" unicode="&#xE038;" d="M474.24 140A59.52 59.52 0 0 1 548.48 140L872.32 388.96A58.88 58.88 0 0 1 882.56 472.16 72.96 72.96 0 0 1 872.32 481.76L548.48 731.36A64 64 0 0 1 474.24 731.36L150.4 481.76A58.24 58.24 0 0 1 140.16 399.2L150.4 388.96ZM512 678.88L828.16 435.68 512 192.48 195.84 435.68ZM846.72 358.24L793.6 317.28 827.52 291.68 512 48.48 195.84 291.68 230.4 317.92 177.92 358.88 150.4 338.4A59.52 59.52 0 0 1 140.16 255.2 77.44 77.44 0 0 1 150.4 244.96L474.24-4A64 64 0 0 1 548.48-4L872.32 244.96A58.88 58.88 0 0 1 882.56 328.16 77.44 77.44 0 0 1 872.32 338.4ZM857.6 221.28L807.68 179.04 827.52 163.68 512-79.52 196.48 163.68 215.04 178.4 164.48 220.64 151.04 210.4A59.52 59.52 0 0 1 140.8 127.2 72.96 72.96 0 0 1 151.04 117.6L474.88-132A64 64 0 0 1 549.12-132L872.96 117.6A57.6 57.6 0 0 1 883.2 200.16 77.44 77.44 0 0 1 872.96 210.4Z"  horiz-adv-x="1024" vert-adv-y="1024"  />

      
      <glyph glyph-name="calculation" unicode="&#xE03D;" d="M832 684H192A64 64 0 0 1 128 620V-20A64 64 0 0 1 192-84H832A64 64 0 0 1 896-20V620A64 64 0 0 1 832 684ZM832-20H192V620H832ZM747.52 396H576A32 32 0 0 0 576 460H748.8A32 32 0 0 0 748.8 396ZM576 162.4H748.8A32 32 0 0 1 780.8 194.4 32.64 32.64 0 0 1 748.8 226.4H576A32 32 0 0 1 544 194.4 32 32 0 0 1 576 162.4ZM747.52 127.84H576A32 32 0 0 1 544 95.84 32 32 0 0 1 576 63.84H748.8A32 32 0 0 1 780.8 95.84 32.64 32.64 0 0 1 747.52 127.84ZM472.32 460H408.32V524A32 32 0 0 1 344.32 524V460H280.32A32 32 0 1 1 280.32 396H344.32V332A32 32 0 0 1 408.32 332V396H472.32A32 32 0 0 1 472.32 460ZM421.76 145.12L466.56 189.92A32 32 0 0 1 466.56 235.36 30.72 30.72 0 0 1 421.76 235.36L376.32 189.92 330.88 236A30.72 30.72 0 0 1 286.08 236 32 32 0 0 1 286.08 190.56L330.88 145.76 286.08 100.32A32 32 0 0 1 286.08 54.88 32.64 32.64 0 0 1 330.88 54.88L376.32 100.32 421.76 54.88A30.08 30.08 0 0 1 444.16 45.92 29.44 29.44 0 0 1 466.56 54.88 32 32 0 0 1 466.56 100.32Z"  horiz-adv-x="1024" vert-adv-y="1024"  />

      
      <glyph glyph-name="export" unicode="&#xE040;" d="M308.48 511.84A31.36 31.36 0 0 1 330.88 502.24 32.64 32.64 0 0 1 353.92 511.84L481.92 639.84V134.24A32 32 0 0 1 545.92 134.24V637.92L673.92 509.92A32.64 32.64 0 0 1 696.96 500.32 32 32 0 0 1 715.52 556L534.4 737.76H534.4A30.72 30.72 0 0 1 489.6 737.76L308.48 556A30.72 30.72 0 0 1 308.48 511.2ZM896-52V396H896A32 32 0 0 1 864 428H640V364H832V-20H192V364H384V428H160A32 32 0 0 1 128 396V-52H128A32 32 0 0 1 160-84H864A32 32 0 0 1 896-52Z"  horiz-adv-x="1024" vert-adv-y="1024"  />

      
      <glyph glyph-name="delete" unicode="&#xE043;" d="M931.84 588H707.84V625.76A90.24 90.24 0 0 1 617.6 716H416.64A90.24 90.24 0 0 1 326.4 625.76V588H99.84A32 32 0 0 1 99.84 524H197.12V-20A64 64 0 0 1 261.12-84H773.12A64 64 0 0 1 837.12-20V524H931.84A32 32 0 1 1 931.84 588ZM390.4 625.76A26.24 26.24 0 0 0 416.64 652H617.6A26.24 26.24 0 0 0 643.84 625.76V588H387.84ZM774.4-20H262.4V524H774.4ZM357.12 76A32.64 32.64 0 0 1 389.12 108V364A32 32 0 0 1 357.12 396 32 32 0 0 1 325.12 364V108A32 32 0 0 1 357.12 76ZM515.84 76A32 32 0 0 1 547.84 108V364A32 32 0 0 1 515.84 396 32 32 0 0 1 483.84 364V108A32.64 32.64 0 0 1 515.84 76ZM675.84 76A32 32 0 0 1 707.84 108V364A32 32 0 0 1 675.84 396 32 32 0 0 1 643.84 364V108A32.64 32.64 0 0 1 675.84 76Z"  horiz-adv-x="1024" vert-adv-y="1024"  />

      
      <glyph glyph-name="see" unicode="&#xE047;" d="M832 684H192A64 64 0 0 1 128 620V-20A64 64 0 0 1 192-84H512V-20H192V620H832V300H896V620A64 64 0 0 1 832 684ZM768 236A192 192 0 1 1 687.36 79.84L850.56-84 896-38.56 731.52 125.28A192 192 0 0 1 768 236ZM448 236A128 128 0 1 0 576 108 128 128 0 0 0 448 236Z"  horiz-adv-x="1024" vert-adv-y="1024"  />

      
      <glyph glyph-name="edit" unicode="&#xE049;" d="M832 300V-20H192V620H512V684H192A64 64 0 0 1 128 620V-20A64 64 0 0 1 192-84H832A64 64 0 0 1 896-20V300ZM275.84 63.2L485.12 136.16 892.16 543.84 756.48 679.52 348.8 271.84ZM404.48 236L756.48 587.36 801.92 542.56 448 191.84 378.24 167.52Z"  horiz-adv-x="1024" vert-adv-y="1024"  />

      
      <glyph glyph-name="lock" unicode="&#xE04F;" d="M832-84H192A32 32 0 0 0 160-52V442.08A32 32 0 0 0 192 474.08H832A32 32 0 0 0 864 442.08V-53.92A32.64 32.64 0 0 0 832-84ZM224-20H800V410.08H224ZM512 91.36A32.64 32.64 0 0 0 480 123.36V264.16A32 32 0 0 0 512 296.16 32 32 0 0 0 544 264.16V123.36A32 32 0 0 0 512 91.36ZM700.16 410.08H320A32.64 32.64 0 0 0 288 442.08V523.36A223.36 223.36 0 0 0 736 523.36V442.08A32 32 0 0 0 700.16 410.08ZM350.08 474.08H670.08V523.36A159.36 159.36 0 0 1 350.08 523.36Z"  horiz-adv-x="1024" vert-adv-y="1024"  />

      
      <glyph glyph-name="phone" unicode="&#xE050;" d="M757.12-84H259.84A32 32 0 0 0 227.84-52V652A32.64 32.64 0 0 0 259.84 684H757.12A32 32 0 0 0 789.12 652V-52A32 32 0 0 0 757.12-84ZM291.84-20H725.12V620H291.84ZM279.68 206.56H757.12V142.56H279.68ZM510.72 98.4A37.12 37.12 0 1 1 510.72 24.16 37.12 37.12 0 1 1 510.72 98.4Z"  horiz-adv-x="1024" vert-adv-y="1024"  />

      
      <glyph glyph-name="document-update" unicode="&#xE051;" d="M512-20H256V620H768V364A32 32 0 0 1 832 364V648.8A32 32 0 0 1 800 680.8H224A32 32 0 0 1 192 648.8V-55.2A32 32 0 0 1 224-87.2H512A32 32 0 0 1 512-23.2ZM696.96 332A32 32 0 0 1 664.96 364H344.96A32 32 0 1 1 344.96 300H664.96A32 32 0 0 1 696.96 332ZM350.72 236A32 32 0 0 1 318.72 204 32.64 32.64 0 0 1 350.72 172H478.72A32 32 0 0 1 510.72 204 32 32 0 0 1 478.72 236ZM683.52 567.52H343.68A32 32 0 0 1 311.68 535.52V448.48A32 32 0 0 1 343.68 416.48H683.52A32 32 0 0 1 715.52 448.48V535.52A32 32 0 0 1 683.52 567.52ZM651.52 480.48H375.68V503.52H651.52ZM687.36 17.12A23.68 23.68 0 0 1 641.92 1.76L641.92-6.56A117.76 117.76 0 0 0 597.12 84.96 119.04 119.04 0 0 0 674.56 195.68 32 32 0 1 1 652.16 255.2 180.48 180.48 0 0 1 609.28-64.8H609.28A24.32 24.32 0 0 1 616.96-111.52L625.28-111.52 696.32-84A24.32 24.32 0 0 1 711.04-53.28ZM828.16 229.6L835.2 229.6A23.68 23.68 0 1 1 819.84 274.4L750.08 250.72A24.32 24.32 0 0 1 734.72 220L759.04 150.24A23.04 23.04 0 0 1 781.44 134.24 16 16 0 0 1 789.12 134.24 23.68 23.68 0 0 1 805.12 159.2 115.2 115.2 0 0 0 759.04-28.96 33.28 33.28 0 0 1 739.84-70.56 32.64 32.64 0 0 1 769.92-91.04L781.44-91.04A181.12 181.12 0 0 1 828.16 223.84Z"  horiz-adv-x="1024" vert-adv-y="1024"  />

      
      <glyph glyph-name="help" unicode="&#xE053;" d="M512-116A416 416 0 1 0 926.72 300 416.64 416.64 0 0 0 512-116ZM512 652A352 352 0 1 1 862.72 300 352.64 352.64 0 0 1 512 652ZM542.72 428H542.72L478.72 442.08A32.64 32.64 0 0 1 440.96 417.12 32 32 0 0 1 464.64 379.36L496.64 372.32 432.64 91.36V91.36H432.64A32 32 0 0 1 456.96 52.96H456.96L520.96 38.88A32 32 0 0 1 535.68 102.88H535.68L504.96 109.92 568.96 393.44A32.64 32.64 0 0 1 542.72 428ZM550.4 564.96A48 48 0 1 1 586.88 507.36 48 48 0 0 1 550.4 564.96Z"  horiz-adv-x="1024" vert-adv-y="1024"  />

      
      <glyph glyph-name="informations" unicode="&#xE054;" d="M832 684H192A64 64 0 0 1 128 620V44A64 64 0 0 1 192-20H640L658.56-52A64 64 0 0 1 769.28-52L787.84-20H832A64 64 0 0 1 896 44V620A64 64 0 0 1 832 684ZM832 44H752.64L734.72 12 715.52-20 697.6 12 679.04 44H192V620H832ZM318.08 380.64A48 48 0 1 1 318.08 284.64 48 48 0 1 1 318.08 380.64ZM512 380.64A48 48 0 1 1 512 284.64 48 48 0 1 1 512 380.64ZM680.96 291.04A48 48 0 1 1 663.68 355.04 47.36 47.36 0 0 1 680.96 291.04Z"  horiz-adv-x="1024" vert-adv-y="1024"  />

      
      <glyph glyph-name="more" unicode="&#xE056;" d="M358.4 337.76A37.76 37.76 0 1 1 358.4 262.24 37.76 37.76 0 1 1 358.4 337.76ZM665.6 337.76A37.76 37.76 0 1 1 665.6 262.24 37.76 37.76 0 1 1 665.6 337.76ZM512 337.76A37.76 37.76 0 1 1 512 262.24 37.76 37.76 0 1 1 512 337.76ZM864.64-84H160.64A32 32 0 0 0 128.64-52V652A32 32 0 0 0 160.64 684H864.64A32 32 0 0 0 896.64 652V-52A32 32 0 0 0 864.64-84ZM192-20H832V620H192Z"  horiz-adv-x="1024" vert-adv-y="1024"  />

      
      <glyph glyph-name="notice" unicode="&#xE05A;" d="M512 655.84A231.68 231.68 0 0 0 743.68 424.16V156.64L784 140.64A35.2 35.2 0 0 0 805.76 108 34.56 34.56 0 0 0 770.56 72.8H256A35.2 35.2 0 0 0 241.92 140L280.96 156.64V424.8A231.04 231.04 0 0 0 512 655.84H512M512 719.84H512A294.4 294.4 0 0 1 215.04 424.8V198.88A99.2 99.2 0 0 1 254.08 6.88H766.08A99.2 99.2 0 0 1 803.2 198.88V424.16A295.68 295.68 0 0 1 512 719.84ZM512-55.84A64 64 0 0 0 448 8.16H384A128 128 0 1 1 640 8.16H576A64 64 0 0 0 512-55.84Z"  horiz-adv-x="1024" vert-adv-y="1024"  />

      
      <glyph glyph-name="import" unicode="&#xE05C;" d="M330.24 345.44A32 32 0 0 1 307.84 291.04L488.96 108H488.96A31.36 31.36 0 0 1 511.36 98.4 30.08 30.08 0 0 1 533.76 108L714.88 289.12A30.72 30.72 0 0 1 714.88 333.92H714.88A30.72 30.72 0 0 1 670.08 333.92L542.08 205.92V715.36A32 32 0 0 1 512 748 32.64 32.64 0 0 1 480 716V210.4L352 338.4A32.64 32.64 0 0 1 330.24 345.44ZM896 587.36A32 32 0 0 1 864 619.36H640V556H832V-20H192V556H384V620H159.36A32.64 32.64 0 0 1 127.36 588V-52H128A32 32 0 0 1 160-84H864A32 32 0 0 1 896-52H896Z"  horiz-adv-x="1024" vert-adv-y="1024"  />

      
      <glyph glyph-name="quick" unicode="&#xE05E;" d="M869.76 191.2L586.24 255.2H579.2A26.88 26.88 0 0 1 553.6 220L636.16-57.76A33.92 33.92 0 0 1 668.16-82.08 25.6 25.6 0 0 1 688-73.76L761.6 59.36 889.6 141.92A32 32 0 0 1 869.76 191.2ZM726.4 111.84L712.96 102.88 704 88.8 673.92 34.4 632.96 177.12 778.88 145.76ZM260.48 108H160.64A32 32 0 0 0 128.64 140V652A32 32 0 0 0 160.64 684H672.64A32.64 32.64 0 0 0 704.64 652V545.76H640V620H192V172H260.48ZM512-16.16H279.68A32 32 0 0 0 247.68 15.84V527.84A32 32 0 0 0 279.68 559.84H791.68A32 32 0 0 0 823.68 527.84V300A32 32 0 0 0 759.68 300V497.76H311.68V49.76H512A32 32 0 0 0 544 17.76 32 32 0 0 0 512-16.16Z"  horiz-adv-x="1024" vert-adv-y="1024"  />

      
      <glyph glyph-name="relation" unicode="&#xE05F;" d="M640 168.16H512A32 32 0 0 0 480 200.16 32 32 0 0 0 512 232.16H608V620H192V232.16H252.16A32 32 0 0 0 284.16 200.16 32 32 0 0 0 252.16 168.16H160A32 32 0 0 0 128 200.16V652A32 32 0 0 0 160 684H640A32.64 32.64 0 0 0 672 652V200.16A32.64 32.64 0 0 0 640 168.16ZM868.48-84H384A32 32 0 0 0 352-52V396A32 32 0 0 0 384 428H512A32 32 0 0 0 544 396 32.64 32.64 0 0 0 512 364H418.56V-20H836.48V364H768A32 32 0 0 0 736 396 32 32 0 0 0 768 428H870.4A32 32 0 0 0 902.4 396V-55.2A32 32 0 0 0 868.48-84Z"  horiz-adv-x="1024" vert-adv-y="1024"  />

      
      <glyph glyph-name="salesteam" unicode="&#xE060;" d="M538.24 369.76H505.6A122.88 122.88 0 0 0 384 492V562.4A122.88 122.88 0 0 0 505.6 684H538.24A122.88 122.88 0 0 0 661.12 562.4V492A122.88 122.88 0 0 0 538.24 369.76ZM505.6 620A58.88 58.88 0 0 1 448 562.4V492A58.88 58.88 0 0 1 506.88 433.76H539.52A58.88 58.88 0 0 1 597.12 492V562.4A58.88 58.88 0 0 1 538.24 620ZM444.16 389.6H371.84A99.84 99.84 0 0 0 272 492V556A99.84 99.84 0 0 0 371.84 652H407.68A32 32 0 0 0 439.68 620 32 32 0 0 0 407.68 588H371.84A36.48 36.48 0 0 1 336 552.16V492A35.84 35.84 0 0 1 371.84 456.16H444.16A32 32 0 0 0 444.16 392.16ZM741.76-84H302.08A64 64 0 0 0 256-64.8 74.88 74.88 0 0 0 239.36-4.64L266.24 172A185.6 185.6 0 0 0 439.68 340.96H604.16A186.24 186.24 0 0 0 778.24 172L804.48-4A74.24 74.24 0 0 0 788.48-64.16 64 64 0 0 0 741.76-84ZM439.68 276.96A122.88 122.88 0 0 1 329.6 161.76L302.72-14.24A12.16 12.16 0 0 1 302.72-23.2H737.92A10.24 10.24 0 0 1 737.92-14.88L711.04 161.12A122.88 122.88 0 0 1 600.32 276.32ZM250.24 32.48H192A51.84 51.84 0 0 0 153.6 50.4 64 64 0 0 0 139.52 99.68L157.44 218.08A133.12 133.12 0 0 0 282.24 340.96H531.2A32 32 0 0 0 563.2 308.96 32 32 0 0 0 531.2 276.96H282.24C252.8 276.96 227.2 248.16 218.24 208.48L201.6 96.48H247.68A32 32 0 0 0 279.68 64.48 32 32 0 0 0 250.24 32.48ZM672 389.6H599.04A32 32 0 0 0 599.04 453.6H672A35.84 35.84 0 0 1 707.84 492V556A36.48 36.48 0 0 1 672 591.84H635.52A32 32 0 0 0 603.52 623.84 32 32 0 0 0 635.52 655.84H672A99.84 99.84 0 0 0 771.84 556V492A99.84 99.84 0 0 0 672 389.6ZM851.2 32.48H792.96A32 32 0 0 0 760.96 64.48 32 32 0 0 0 792.96 96.48H839.04L822.4 208.48C816.64 248.16 791.04 276.96 761.6 276.96H512A32 32 0 0 0 480 308.96 32 32 0 0 0 512 340.96H761.6A133.76 133.76 0 0 0 885.76 218.08L903.04 99.68A64 64 0 0 0 889.6 50.4 54.4 54.4 0 0 0 851.2 32.48ZM522.24 33.76L496 104.8 469.76 176.48 522.24 176.48 574.08 176.48 548.48 104.8 522.24 33.76Z"  horiz-adv-x="1024" vert-adv-y="1024"  />

      
      <glyph glyph-name="preservation" unicode="&#xE061;" d="M817.28-84H207.36A32 32 0 0 0 175.36-52V652A32 32 0 0 0 207.36 684H576A32.64 32.64 0 0 0 597.76 675.68L838.4 451.68A30.72 30.72 0 0 0 849.28 428V-52A32 32 0 0 0 817.28-84ZM241.28-20H787.2V413.92L563.2 620H239.36ZM673.28-84H353.28A32 32 0 0 0 321.28-52V185.44A32 32 0 0 0 353.28 217.44H673.28A32 32 0 0 0 705.28 185.44V-52A32 32 0 0 0 673.28-84ZM384-20H640V153.44H384ZM512 458.08H320A32.64 32.64 0 0 0 288 490.08V650.08A32.64 32.64 0 0 0 320 684H512A32 32 0 0 0 544 652V492A32 32 0 0 0 512 458.08ZM350.72 522.08H478.72V620H350.72Z"  horiz-adv-x="1024" vert-adv-y="1024"  />

      
      <glyph glyph-name="plus" unicode="&#xE062;" d="M512 77.92A32 32 0 0 0 480 109.92V492A32 32 0 0 0 544 492V108A32 32 0 0 0 512 77.92ZM704 269.92H320A32 32 0 0 0 288 301.92 32.64 32.64 0 0 0 320 333.92H704A32.64 32.64 0 0 0 736 301.92 32 32 0 0 0 704 269.92ZM861.44-84H157.44A32 32 0 0 0 125.44-52V652A32.64 32.64 0 0 0 157.44 684H861.44A32 32 0 0 0 893.44 652V-52A32 32 0 0 0 861.44-84ZM192-20H832V620H192Z"  horiz-adv-x="1024" vert-adv-y="1024"  />

      
      <glyph glyph-name="reset" unicode="&#xE063;" d="M465.28-27.68A17.92 17.92 0 0 1 465.28-21.92V-21.92L410.88 136.16A32.64 32.64 0 0 1 369.92 156 32 32 0 0 1 350.08 115.68L384 22.88A310.4 310.4 0 0 0 204.8 300 305.28 305.28 0 0 0 441.6 598.88 32 32 0 0 1 465.28 637.28 31.36 31.36 0 0 1 426.88 660.96 369.28 369.28 0 0 1 341.12-27.04L264.96-53.28A32 32 0 0 1 275.84-117.28 30.08 30.08 0 0 1 286.08-117.28L443.52-63.52A34.56 34.56 0 0 1 455.04-56.48L455.04-56.48A30.72 30.72 0 0 1 460.8-49.44L460.8-45.6 460.8-41.12V-41.12A10.88 10.88 0 0 1 465.28-27.68ZM682.88 627.68L759.68 653.92A32 32 0 0 1 738.56 717.92L580.48 663.52 580.48 663.52 571.52 659.04V659.04A31.36 31.36 0 0 1 564.48 650.08H564.48A34.56 34.56 0 0 1 564.48 643.04 33.28 33.28 0 0 1 568.32 619.36L614.4 461.28A32 32 0 0 1 645.12 439.52 28.8 28.8 0 0 1 655.36 439.52 32 32 0 0 1 675.2 479.84L640 577.12A304 304 0 0 0 819.2 300 309.12 309.12 0 0 0 582.4 1.76 32 32 0 0 1 590.08-62.24H597.12A374.4 374.4 0 0 1 883.2 300 367.36 367.36 0 0 1 682.88 627.68Z"  horiz-adv-x="1024" vert-adv-y="1024"  />

      
      <glyph glyph-name="record" unicode="&#xE064;" d="M286.72 201.44H478.72A32 32 0 0 1 512 236 32 32 0 0 1 480 268H288A32 32 0 0 1 256 236 32 32 0 0 1 286.72 201.44ZM286.72 332H414.72A32 32 0 0 1 414.72 396H286.72A32 32 0 0 1 286.72 332ZM286.72 76H606.72A32 32 0 0 1 606.72 140H286.72A32 32 0 0 1 286.72 76ZM707.84 260.32L896 588.64 729.6 684 541.44 355.68 576 236ZM753.28 596.96L808.96 564.96 666.88 317.28 621.44 308.32 609.92 347.36ZM384 556A32 32 0 0 1 416 588V716A32 32 0 0 1 352 716V588A32 32 0 0 1 384 556ZM576 556A32 32 0 0 1 608 588V620H608V684H608V716A32 32 0 0 1 576 748 32 32 0 0 1 544 716V588A32 32 0 0 1 576 556ZM768-20H192V620H334.72V684H192A64 64 0 0 1 128 620V-20A64 64 0 0 1 192-84H768A64 64 0 0 1 832-20V300H768ZM621.44 684H638.72V620H621.44ZM430.72 684H525.44V620H430.72Z"  horiz-adv-x="1024" vert-adv-y="1024"  />

      
      <glyph glyph-name="search" unicode="&#xE06A;" d="M477.44-20A350.08 350.08 0 1 0 827.52 330.08 350.08 350.08 0 0 0 477.44-20ZM477.44 620A286.08 286.08 0 1 1 763.52 333.92 286.08 286.08 0 0 1 477.44 620ZM863.36-84A32 32 0 0 0 841.6-75.68L744.96 13.92A32 32 0 1 0 788.48 60.64L885.12-28.96A32 32 0 0 0 863.36-84Z"  horiz-adv-x="1024" vert-adv-y="1024"  />

      
      <glyph glyph-name="settlement" unicode="&#xE06C;" d="M484.48 358.88L416.64 428A32 32 0 1 1 371.2 382.56L439.04 313.44A33.28 33.28 0 0 1 484.48 313.44 32.64 32.64 0 0 1 484.48 358.88ZM670.08 381.28A32 32 0 0 1 624.64 428L556.8 358.88A32.64 32.64 0 0 1 556.8 313.44 33.28 33.28 0 0 1 602.24 313.44ZM461.44 304.48H389.12A32.64 32.64 0 0 1 357.12 272.48 32 32 0 0 1 389.12 240.48H485.12V176.48H389.12A32.64 32.64 0 0 1 357.12 144.48 32 32 0 0 1 389.12 112.48H485.12V79.2A32 32 0 0 1 517.12 47.2 32 32 0 0 1 549.12 79.2V112.48H645.12A32 32 0 0 1 677.12 144.48 32 32 0 0 1 645.12 176.48H549.12V240.48H645.12A32 32 0 0 1 677.12 272.48 32 32 0 0 1 645.12 304.48H461.44ZM800.64-84H224.64A32 32 0 0 0 192.64-52V588A32 32 0 0 0 224.64 620H375.04A32 32 0 0 0 407.04 588 32.64 32.64 0 0 0 375.04 556H256V-20H768V556H658.56A32 32 0 0 0 626.56 588 32 32 0 0 0 658.56 620H800.64A32 32 0 0 0 832.64 588V-52A32 32 0 0 0 800.64-84ZM643.2 497.76H384A32.64 32.64 0 0 0 352 529.76V648.8A32.64 32.64 0 0 0 384 680.8H644.48A32 32 0 0 0 676.48 648.8V529.76A32 32 0 0 0 643.2 497.76ZM414.72 561.76H611.2V616.8H414.72Z"  horiz-adv-x="1024" vert-adv-y="1024"  />

      
      <glyph glyph-name="eye" unicode="&#xE06E;" d="M512 620C264.32 620 64 300 64 300S264.32-20 512-20 960 300 960 300 759.68 620 512 620ZM512 44C346.88 44 197.76 223.2 142.08 300 197.76 376.16 346.88 556 512 556S826.24 376.8 881.92 300C826.24 222.56 677.12 44 512 44ZM512 428A128 128 0 1 1 640 300 128 128 0 0 1 512 428ZM512 236A64 64 0 1 0 576 300 64 64 0 0 0 512 236Z"  horiz-adv-x="1024" vert-adv-y="1024"  />

      
      <glyph glyph-name="time" unicode="&#xE070;" d="M512 741.6A441.6 441.6 0 1 0 70.4 300 442.24 442.24 0 0 0 512 741.6M512 748A448 448 0 1 1 960 300 448 448 0 0 1 512 748ZM512 748A448 448 0 1 1 960 300 448 448 0 0 1 512 748ZM512-84A384 384 0 1 0 896 300 384 384 0 0 0 512-84ZM538.88 326.88V588A32 32 0 0 1 506.88 620 32 32 0 0 1 474.88 588V300H474.88L624.64 149.6A32.64 32.64 0 0 1 670.08 149.6 32 32 0 0 1 670.08 195.04Z"  horiz-adv-x="1024" vert-adv-y="1024"  />

      
      <glyph glyph-name="system-upgrade" unicode="&#xE071;" d="M721.28 51.68H644.48A32 32 0 0 0 612.48 83.68 32 32 0 0 0 644.48 115.68H721.28A148.48 148.48 0 0 1 866.56 267.36 148.48 148.48 0 0 1 721.28 418.4H709.12A32 32 0 0 0 677.12 450.4 165.76 165.76 0 0 1 512 620 165.76 165.76 0 0 1 351.36 450.4 32 32 0 0 0 319.36 418.4H307.2A148.48 148.48 0 0 1 161.92 267.36 148.48 148.48 0 0 1 307.2 115.68H384A32 32 0 0 0 416 83.68 32.64 32.64 0 0 0 384 51.68H307.2A215.68 215.68 0 0 0 289.92 481.76 228.48 228.48 0 0 0 512 684 229.12 229.12 0 0 0 736.64 482.4 213.12 213.12 0 0 0 928.64 268 213.12 213.12 0 0 0 721.28 51.68ZM512-88.48A32 32 0 0 0 480-56.48V179.04A32 32 0 0 0 512 211.04 32.64 32.64 0 0 0 544 179.04V-56.48A32 32 0 0 0 512-88.48ZM512 147.04H512A30.72 30.72 0 0 0 488.96 156.64L373.12 278.24A32 32 0 0 0 373.12 323.04L491.52 444.64A32 32 0 0 0 536.96 444.64L655.36 323.04A32 32 0 0 0 655.36 278.24L536.96 156.64A30.08 30.08 0 0 0 512 147.04ZM440.96 300L512 224.48 587.52 300 512 376.8Z"  horiz-adv-x="1024" vert-adv-y="1024"  />

      
      <glyph glyph-name="supplier" unicode="&#xE072;" d="M512 112.48A287.36 287.36 0 1 0 799.36 399.2 287.36 287.36 0 0 0 512 112.48ZM512 620A223.36 223.36 0 1 1 735.36 396.64 222.72 222.72 0 0 1 512 620ZM355.84-84A33.28 33.28 0 0 0 330.88-72.48L266.88 7.52C245.76 7.52 202.88 7.52 159.36 7.52A32 32 0 0 0 132.48 22.24 32.64 32.64 0 0 0 132.48 52.96L248.32 300 306.56 273.12 211.84 69.6C254.08 69.6 282.88 69.6 282.88 69.6A38.4 38.4 0 0 0 309.76 56.8S328.96 31.2 348.8 6.24L418.56 155.36 476.8 128.48 384-66.72A31.36 31.36 0 0 0 359.04-85.28ZM670.08-84H666.24A31.36 31.36 0 0 0 640-64.8L549.12 131.68 606.72 158.56 677.12 9.44 716.16 60A32.64 32.64 0 0 0 742.4 72.8S771.2 72.8 814.08 72.8L718.72 274.4 776.96 300 896 52.96A32.64 32.64 0 0 0 896 22.24 32 32 0 0 0 869.12 7.52C821.76 7.52 782.72 7.52 761.6 7.52L697.6-72.48A33.92 33.92 0 0 0 670.08-84ZM512 243.04A156.8 156.8 0 1 0 668.8 399.2 156.8 156.8 0 0 0 512 243.04ZM512 492A92.8 92.8 0 1 1 602.24 399.2 92.8 92.8 0 0 1 512 492Z"  horiz-adv-x="1024" vert-adv-y="1024"  />

      
      <glyph glyph-name="upload" unicode="&#xE073;" d="M775.04 472.16S775.04 478.56 775.04 482.4A265.6 265.6 0 1 1 243.84 482.4C243.84 478.56 243.84 474.72 243.84 470.88A256 256 0 0 1 320-28.32H384V35.68H320A192 192 0 0 0 264.32 410.08L311.68 424.16 311.68 473.44A64 64 0 0 1 311.68 484.32 201.6 201.6 0 0 0 714.88 484.32C714.88 480.48 714.88 477.28 714.88 474.08L714.88 424.16 762.88 410.08A192 192 0 0 0 896 227.68 192 192 0 0 0 704 35.68H640V-28.32H704A256 256 0 0 1 775.04 472.16ZM670.08 172A32 32 0 0 1 670.08 217.44L534.4 350.56A32 32 0 0 1 489.6 350.56L353.92 214.88A32 32 0 0 1 353.92 169.44 30.72 30.72 0 0 1 398.72 169.44L480 250.72V-116A32 32 0 0 1 544-116V250.72L625.28 172A30.72 30.72 0 0 1 670.08 172Z"  horiz-adv-x="1024" vert-adv-y="1024"  />

      
      <glyph glyph-name="transceiver" unicode="&#xE074;" d="M640 364H352A32 32 0 0 0 320 396 32 32 0 0 0 352 428H640A32 32 0 0 0 672 396 32 32 0 0 0 640 364ZM512 236H352A32 32 0 0 0 320 268 32 32 0 0 0 352 300H512A32 32 0 0 0 544 268 32 32 0 0 0 512 236ZM799.36 268A32 32 0 0 0 768 300V556H657.28A32.64 32.64 0 0 0 625.28 588 32 32 0 0 0 657.28 620H799.36A32 32 0 0 0 831.36 588V300A32 32 0 0 0 799.36 268ZM512-84H224.64A32.64 32.64 0 0 0 192.64-52V588A32 32 0 0 0 224.64 620H373.76A32 32 0 0 0 405.76 588 32 32 0 0 0 373.76 556H256V-20H512A32 32 0 0 0 544-52 32 32 0 0 0 512-84ZM832 125.92H640A24.32 24.32 0 0 0 640 172H832A24.32 24.32 0 1 0 832 124ZM704 65.76A21.76 21.76 0 0 0 689.28 70.88L613.76 130.4A23.68 23.68 0 0 0 604.8 149.6 23.68 23.68 0 0 0 613.76 168.16L689.28 228.32A24.32 24.32 0 0 0 719.36 190.56L667.52 149.6 718.72 108.64A24.32 24.32 0 0 0 723.2 74.72 26.24 26.24 0 0 0 704 65.76ZM826.24-43.68H631.04A23.04 23.04 0 0 0 607.36-20 23.68 23.68 0 0 0 631.04 4.32H826.24A24.32 24.32 0 0 0 850.56-20 23.68 23.68 0 0 0 826.24-43.68ZM757.12-104.48A24.32 24.32 0 0 0 741.76-61.6L793.6-20 741.76 21.6A23.68 23.68 0 0 0 737.92 54.88 23.04 23.04 0 0 0 771.2 58.72L847.36-0.8A23.68 23.68 0 0 0 856.32-20 23.68 23.68 0 0 0 847.36-38.56L771.84-98.72A25.6 25.6 0 0 0 757.12-104.48ZM640 502.88H384A32 32 0 0 0 352 534.88V653.28A32.64 32.64 0 0 0 384 684H640A32.64 32.64 0 0 0 672 652V534.88A32 32 0 0 0 640 502.88ZM412.8 566.88H604.8V620H412.8Z"  horiz-adv-x="1024" vert-adv-y="1024"  />

      
      <glyph glyph-name="user" unicode="&#xE075;" d="M489.6 325.6H534.4A89.6 89.6 0 0 1 624 415.2V492A89.6 89.6 0 0 1 534.4 581.6H489.6A89.6 89.6 0 0 1 400 492V415.2A89.6 89.6 0 0 1 489.6 325.6ZM464 492A25.6 25.6 0 0 0 489.6 517.6H534.4A25.6 25.6 0 0 0 560 492V415.2A24.96 24.96 0 0 0 534.4 389.6H489.6A24.96 24.96 0 0 0 464 415.2ZM704 236A37.76 37.76 0 0 1 688.64 259.68 308.48 308.48 0 0 1 512 300 312.96 312.96 0 0 1 335.36 259.68 40.96 40.96 0 0 1 320 236L288 93.28A40.96 40.96 0 0 1 325.76 42.72H699.52A39.68 39.68 0 0 1 736.64 91.36ZM356.48 108L380.16 212.96A284.16 284.16 0 0 0 512 236 280.32 280.32 0 0 0 643.2 211.68L667.52 108ZM512 748A448 448 0 1 1 960 300 448 448 0 0 1 512 748ZM512-84A384 384 0 1 0 896 300 384 384 0 0 0 512-84Z"  horiz-adv-x="1024" vert-adv-y="1024"  />

      
      <glyph glyph-name="verification" unicode="&#xE076;" d="M714.24 465.76A32.64 32.64 0 0 1 691.2 456.16L444.16 209.12 330.88 322.4A31.36 31.36 0 0 1 308.48 332 32.64 32.64 0 0 1 285.44 322.4 32 32 0 0 1 285.44 277.6L421.76 141.28A32 32 0 0 1 444.16 132.32H444.16A34.56 34.56 0 0 1 467.2 141.28L736.64 411.36A32 32 0 0 1 714.24 465.76ZM512-117.92A42.88 42.88 0 0 0 487.68-110.88H487.68L182.4 77.92A48 48 0 0 0 160 118.88V556A48.64 48.64 0 0 0 179.2 595.68 44.8 44.8 0 0 0 220.16 602.08C261.12 589.28 368.64 572 476.16 700A53.12 53.12 0 0 0 512 714.72 46.08 46.08 0 0 0 547.84 697.44 236.16 236.16 0 0 1 803.84 599.52 45.44 45.44 0 0 0 846.08 593.12 47.36 47.36 0 0 0 865.28 554.72V118.88A48 48 0 0 0 842.88 77.92L534.4-110.88A40.32 40.32 0 0 0 512-117.92ZM503.04-53.92H503.04ZM224 127.2L512-50.72 800.64 127.2V532.96A297.6 297.6 0 0 0 512 641.12 291.84 291.84 0 0 0 224 532.32ZM524.16 656.48Z"  horiz-adv-x="1024" vert-adv-y="1024"  />

      
      <glyph glyph-name="contract" unicode="&#xE07A;" d="M640 459.36H352A32 32 0 0 0 320 492 32.64 32.64 0 0 0 352 524H640A32 32 0 0 0 672 492 32 32 0 0 0 640 459.36ZM512 300H352A32.64 32.64 0 0 0 320 332 32 32 0 0 0 352 364H512A32 32 0 0 0 544 332 32.64 32.64 0 0 0 512 300ZM472.96-84H226.56A32 32 0 0 0 194.56-52V652A32 32 0 0 0 226.56 684H802.56A32 32 0 0 0 834.56 652V364A32 32 0 0 0 802.56 332 32 32 0 0 0 768 364V616.8H256V-20H472.96A32 32 0 0 0 472.96-84ZM704 236A128 128 0 1 0 576 108 128 128 0 0 0 704 236M704 300A192 192 0 1 1 896 108 192 192 0 0 1 704 300ZM704.64 198.24L730.24 147.04 787.2 138.08 746.24 98.4 755.84 41.44 704.64 68.32 654.08 41.44 663.68 98.4 622.08 138.08 679.68 147.04 704.64 198.24Z"  horiz-adv-x="1024" vert-adv-y="1024"  />

      
      <glyph glyph-name="workbench" unicode="&#xE07B;" d="M423.68 592.48V387.68H219.52V592.48H423.68M423.68 656.48H219.52A64 64 0 0 1 155.52 592.48V387.68A64 64 0 0 1 219.52 323.68H423.68A64 64 0 0 1 487.68 387.68V592.48A64 64 0 0 1 423.68 656.48ZM423.68 212.32V7.52H219.52V212.32H423.68M423.68 276.32H219.52A64 64 0 0 1 155.52 212.32V7.52A64 64 0 0 1 219.52-56.48H423.68A64 64 0 0 1 487.68 7.52V212.32A64 64 0 0 1 423.68 276.32ZM696.32 592.48L804.48 484.32 696.32 376.16 588.8 484.32 696.32 592.48H696.32M696.32 656.48A64 64 0 0 1 651.52 637.28L543.36 529.76A64 64 0 0 1 543.36 438.88L651.52 331.36A64 64 0 0 1 741.76 331.36L849.92 438.88A64 64 0 0 1 849.92 529.76L741.76 637.28A64 64 0 0 1 696.32 656.48ZM804.48 212.32V7.52H600.32V212.32H804.48M804.48 276.32H600.32A64 64 0 0 1 536.32 212.32V7.52A64 64 0 0 1 600.32-56.48H804.48A64 64 0 0 1 868.48 7.52V212.32A64 64 0 0 1 804.48 276.32Z"  horiz-adv-x="1024" vert-adv-y="1024"  />

      
      <glyph glyph-name="secretkey" unicode="&#xE07C;" d="M515.2 261.6A243.2 243.2 0 1 0 758.4 504.8 243.2 243.2 0 0 0 515.2 261.6ZM515.2 684A179.2 179.2 0 1 1 694.4 504.8 179.84 179.84 0 0 1 515.2 684ZM515.2-143.52A32 32 0 0 0 483.2-111.52V293.6A32 32 0 1 0 547.2 293.6V-111.52A32 32 0 0 0 515.2-143.52ZM704 145.12H515.2A32 32 0 0 0 515.2 209.12H704A32 32 0 0 0 704 145.12ZM704-2.72H515.2A32 32 0 0 0 483.2 29.28 32 32 0 0 0 515.2 61.28H704A32 32 0 0 0 736 29.28 32 32 0 0 0 704-2.72Z"  horiz-adv-x="1024" vert-adv-y="1024"  />

      
      <glyph glyph-name="edition" unicode="&#xE07D;" d="M478.08-118.56A30.08 30.08 0 0 0 455.68-108.96L361.6-15.52A91.52 91.52 0 0 0 341.76 81.76L384 186.08 232.96 335.84A320 320 0 0 0 151.04 639.84 32.64 32.64 0 0 0 174.72 663.52 320 320 0 0 0 479.36 582.24L628.48 432.48 732.8 473.44A91.52 91.52 0 0 0 832 452.96L925.44 359.52A32 32 0 0 0 914.56 307.04L786.56 255.84A393.6 393.6 0 0 1 564.48 33.12L512.64-98.08A31.36 31.36 0 0 0 489.6-117.92ZM209.28 605.28A256 256 0 0 1 278.4 381.28L442.24 216.8A32.64 32.64 0 0 0 448 182.24L399.36 58.72A26.88 26.88 0 0 1 405.12 29.92L464-28.96 497.92 56.16A456.32 456.32 0 0 0 753.92 315.36L839.68 348.64 780.8 407.52A26.88 26.88 0 0 1 752 413.92L632.32 364A32 32 0 0 0 598.4 371.04L433.92 536.8A256 256 0 0 1 209.28 605.28ZM858.24-68.64A34.56 34.56 0 0 0 844.16-68.64L549.76 74.72A31.36 31.36 0 0 0 535.04 116.96 30.72 30.72 0 0 0 576 134.88L787.84 32.48 686.08 244.32A32 32 0 0 0 704 286.56 31.36 31.36 0 0 0 746.24 271.84L887.04-20A32 32 0 0 0 880.64-56.48 31.36 31.36 0 0 0 858.24-68.64ZM329.6 523.36A33.92 33.92 0 1 1 329.6 455.52 33.92 33.92 0 1 1 329.6 523.36Z"  horiz-adv-x="1024" vert-adv-y="1024"  />

      

  </font>
</defs>
</svg>
